<?xml version="1.0" standalone="no"?>
<!DOCTYPE svg PUBLIC "-//W3C//DTD SVG 1.1//EN" "http://www.w3.org/Graphics/SVG/1.1/DTD/svg11.dtd" >
<svg xmlns="http://www.w3.org/2000/svg" xmlns:xlink="http://www.w3.org/1999/xlink" version="1.1" viewBox="-10 0 1034 1024">
  <g transform="matrix(1 0 0 -1 0 880)">
   <path fill="currentColor"
d="M420 364q0 -38 27 -65t65 -27t65 27t27 65t-27 65t-65 27t-65 -27t-27 -65zM60 364q0 -38 27 -65t65 -27t65 27t27 65t-27 65t-65 27t-65 -27t-27 -65zM20 364q0 55 38.5 93.5t93.5 38.5t94 -38q31 -32 37 -74h98q6 42 38 74q38 38 93 38t94 -38q31 -32 37 -74h98
q6 42 38 74q38 38 93 38t93.5 -38.5t38.5 -93.5t-38.5 -93.5t-93.5 -38.5t-93 39q-32 31 -38 73h-98q-6 -42 -37 -73q-39 -39 -94 -39t-93 39q-32 31 -38 73h-98q-6 -42 -37 -73q-39 -39 -94 -39t-93.5 38.5t-38.5 93.5zM780 364q0 -38 27 -65t65 -27t65 27t27 65t-27 65
t-65 27t-65 -27t-27 -65z" />
  </g>

</svg>
